<?xml version="1.0" encoding="utf-8"?>
<!-- Generator: Adobe Illustrator 18.1.1, SVG Export Plug-In . SVG Version: 6.00 Build 0)  -->
<svg version="1.1" id="Layer_1" xmlns="http://www.w3.org/2000/svg" xmlns:xlink="http://www.w3.org/1999/xlink" x="0px" y="0px"
	 viewBox="0 0 101.7 90.9" enable-background="new 0 0 101.7 90.9" xml:space="preserve">
<g>
	<path fill="#02B099" d="M82,54.5c5-2.1,9.2-5.6,12.2-10.1c3-4.4,4.8-9.8,4.8-15.6c0-3.8-0.8-7.5-2.2-10.8c-2.1-5-5.6-9.2-10.1-12.2
		c-4.4-3-9.8-4.8-15.6-4.8H34.3v17h36.9c1.5,0,2.9,0.3,4.2,0.8c1.9,0.8,3.6,2.2,4.8,3.9c1.2,1.7,1.8,3.8,1.8,6.1
		c0,1.5-0.3,2.9-0.8,4.2c-0.8,1.9-2.2,3.6-3.9,4.8c-1.7,1.2-3.8,1.8-6.1,1.8H34.3v17h27.2l19,32.7H100L80,55.3
		C80.7,55,81.3,54.8,82,54.5z"/>
	<rect x="1.6" y="1.1" fill="#02B099" width="17" height="17"/>
	<rect x="1.6" y="39.7" fill="#02B099" width="17" height="50.3"/>
</g>
</svg>
